PathFileType	4	(X/Y/Z)	C:\Users\Basilio\Documents\Thesis Gigler\squatting_fais\c3dfiles\077\SJ_pre1\markers_experimental.trc
DataRate	CameraRate	NumFrames	NumMarkers	Units	OrigDataRate	OrigDataStartFrame	OrigNumFrames
200.000000	200.000000	4	60	mm	200.000000	780	1561
Frame#	Time	FHD			LBHD			RBHD			C7			T10			CLAV			LSHO			LUUPA			LMUPA			LDUPA			LLEP			LMEP			LRAD			LUL			LRFIN			RSHO			RUPA1			RMUPA			RDUPA			RLEP			RMEP			RRAD			RUL			RUFIN			LASI			RASI			USACR			LSACR			RSACR			LTHI1			LTHI2			LTHI3			LTHI4			LLFC			LMFC			LTIB1			LTIB2			LTIB3			LTIB4			LLMAL			LHEE			LMT1			LMT2			LMT5			RTHI			RTHI2			RTHI3			RTHI4			RLFC			RMFC			RTIB1			RTIB2			RTIB3			RTIB4			RLMAL			RMMAL			RHEE			RMT1			RMT2			RMT5			
		X1	Y1	Z1	X2	Y2	Z2	X3	Y3	Z3	X4	Y4	Z4	X5	Y5	Z5	X6	Y6	Z6	X7	Y7	Z7	X8	Y8	Z8	X9	Y9	Z9	X10	Y10	Z10	X11	Y11	Z11	X12	Y12	Z12	X13	Y13	Z13	X14	Y14	Z14	X15	Y15	Z15	X16	Y16	Z16	X17	Y17	Z17	X18	Y18	Z18	X19	Y19	Z19	X20	Y20	Z20	X21	Y21	Z21	X22	Y22	Z22	X23	Y23	Z23	X24	Y24	Z24	X25	Y25	Z25	X26	Y26	Z26	X27	Y27	Z27	X28	Y28	Z28	X29	Y29	Z29	X30	Y30	Z30	X31	Y31	Z31	X32	Y32	Z32	X33	Y33	Z33	X34	Y34	Z34	X35	Y35	Z35	X36	Y36	Z36	X37	Y37	Z37	X38	Y38	Z38	X39	Y39	Z39	X40	Y40	Z40	X41	Y41	Z41	X42	Y42	Z42	X43	Y43	Z43	X44	Y44	Z44	X45	Y45	Z45	X46	Y46	Z46	X47	Y47	Z47	X48	Y48	Z48	X49	Y49	Z49	X50	Y50	Z50	X51	Y51	Z51	X52	Y52	Z52	X53	Y53	Z53	X54	Y54	Z54	X55	Y55	Z55	X56	Y56	Z56	X57	Y57	Z57	X58	Y58	Z58	X59	Y59	Z59	X60	Y60	Z60	

781	3.9	76.67076110839845	1232.586059570313	-903.6770019531252	-66.58470153808595	1127.840942382813	-972.8425292968752	-77.02200317382814	1131.151000976563	-828.5384521484377	-133.6085205078125	1075.24755859375	-901.066101074219	-376.4757690429688	880.5456542968752	-901.6711425781252	-27.68728256225587	920.4147949218752	-891.8864746093752	-9.776221275329592	972.9077758789065	-1070.20556640625	-100.914665222168	906.6484375000002	-1260.127685546875	-114.9916305541992	860.6220703125002	-1261.41357421875	-138.3367309570313	881.670837402344	-1312.227661132813	-188.5333251953125	840.4157714843752	-1347.343139648438	-243.9270477294922	907.786804199219	-1340.75732421875	-425.3823242187501	789.500671386719	-1138.931762695313	nan	nan	nan	-420.1170654296876	717.3120727539064	-1178.563598632813	3.02132797241211	961.2362060546877	-722.2006225585939	-110.9410018920899	897.752380371094	-528.2189941406251	-132.5747680664063	852.706726074219	-535.9653930664064	-159.7039337158203	869.7976684570315	-485.3590698242189	-218.1180725097657	832.6734008789065	-461.8587036132814	-272.1080017089844	904.5018310546877	-465.219696044922	-453.8122558593751	774.9575805664065	-651.6303710937501	-428.2139587402345	702.7406616210939	-630.2888183593751	nan	nan	nan	nan	nan	nan	nan	nan	nan	-478.7805175781251	825.4141845703127	-905.3013305664065	-502.7225036621095	816.3908691406252	-935.475036621094	-514.1005859375001	814.7934570312502	-881.2359619140627	-407.790740966797	614.7866210937501	-1159.585205078125	-329.4188842773438	607.7385253906251	-1188.546752929688	-301.7042236328126	645.1372070312501	-1172.15869140625	-300.0340576171876	557.4729003906251	-1206.17333984375	-163.680892944336	496.7988586425782	-1237.117065429688	-120.7271804809571	458.2717285156251	-1118.298950195313	-189.1712188720703	280.2745971679688	-1182.980590820313	-256.6485900878907	263.8081054687501	-1242.823486328125	-224.7023468017579	245.961898803711	-1216.950073242188	-261.4948120117188	175.474609375	-1182.352661132813	-374.2379760742188	100.6916122436524	-1212.49169921875	-428.4750976562501	48.22181701660158	-1159.134033203125	-216.936752319336	59.1466636657715	-1218.497924804688	-229.5447540283204	43.69479751586915	-1266.459838867188	-328.2659912109376	98.65542602539065	-1135.719970703125	-329.7742309570313	553.8338012695314	-613.5523681640626	-260.8856506347657	566.0264282226564	-597.6195068359376	-243.2550811767579	592.9434204101564	-608.9637451171876	-209.2031707763672	501.2649841308595	-587.5184936523439	-173.5369567871094	461.7155761718751	-577.5644531250001	-122.7583618164063	442.1855468750001	-694.5185546875001	-175.1071472167969	325.3796691894532	-592.1831054687501	-276.8002319335938	289.0798339843751	-579.0587158203126	-238.5791473388672	264.6979370117188	-593.3902587890626	-245.2089843750001	223.0272064208985	-634.1667480468751	-395.4231872558595	97.37932586669925	-622.9678955078126	-351.7814331054688	90.79277801513673	-703.3734130859376	-454.9286193847657	49.1800994873047	-685.5402832031251	-236.4839019775391	59.6781349182129	-616.3189697265626	-250.8130493164063	61.35270309448244	-581.3214721679689	-278.2971191406251	43.0254020690918	-537.2608032226564	
782	3.905	76.89346313476564	1232.48974609375	-903.7659301757815	-66.40223693847658	1127.959106445313	-972.821228027344	-76.7493362426758	1130.151977539063	-827.3850708007815	-133.4461975097657	1075.23876953125	-901.0889892578127	-376.3074951171876	880.5736083984377	-901.715026855469	-27.63894844055176	920.404968261719	-891.9214477539065	-9.54280471801758	972.7713012695315	-1070.113891601563	-100.5506134033203	906.5930175781252	-1260.087890625	-114.8490676879883	860.470642089844	-1261.445434570313	-138.3427886962891	881.5913085937502	-1312.3447265625	-188.2951049804688	840.324890136719	-1347.338500976563	-243.817123413086	907.645690917969	-1340.76953125	-425.1252441406251	789.3096923828127	-1139.028198242188	nan	nan	nan	-419.9478759765626	717.2454833984376	-1178.607055664063	3.181605339050294	961.184997558594	-722.1951904296876	-110.8505935668946	897.6890869140627	-528.2755737304689	-132.4514465332032	852.624206542969	-536.0039672851564	-159.594711303711	869.7581176757815	-485.3461303710939	-218.0165100097657	832.5393066406252	-461.9265136718751	-271.9356689453126	904.4107055664065	-465.2356567382814	-453.633514404297	774.8763427734377	-651.7012939453126	-428.0928955078126	702.6560668945314	-630.3398437500001	nan	nan	nan	nan	nan	nan	nan	nan	nan	-478.658660888672	825.3857421875002	-905.3311157226565	-502.620574951172	816.3792724609377	-935.4358520507815	-513.9694824218751	814.6790771484377	-881.2556152343752	-407.6507568359376	614.7750854492189	-1159.630126953125	-329.2788085937501	607.6301269531251	-1188.537719726563	-301.6380920410157	645.1626586914064	-1172.191528320313	-299.8719787597657	557.4182739257814	-1206.152099609375	-163.5523223876953	496.8418579101564	-1237.202270507813	-120.6876907348633	458.2193908691407	-1118.329467773438	-189.1014099121094	280.2327575683594	-1183.022216796875	-256.5957031250001	263.7952880859376	-1242.8759765625	-224.5994873046876	245.7494659423829	-1216.9345703125	-261.4847106933594	175.5018310546875	-1182.396606445313	-373.4761352539063	100.4256057739258	-1212.395751953125	-428.4703063964845	48.21799850463869	-1159.1240234375	-216.8460235595704	59.10720443725587	-1218.502075195313	-229.1168060302735	44.20850372314454	-1266.326416015625	-328.2378540039063	98.66287231445315	-1135.74560546875	-329.6011962890626	553.7118530273439	-613.6380004882814	-260.7615966796876	565.9117431640626	-597.6607055664064	-243.1086883544922	592.8514404296876	-609.0728149414064	-209.0400543212891	501.1068725585939	-587.6121215820314	-173.3307037353516	461.6214294433595	-577.6433715820314	-122.4779663085938	442.1526794433595	-694.6770019531251	-175.0428314208985	325.3356628417969	-592.2081909179689	-276.6843566894532	289.0724182128907	-579.1402587890626	-238.4828796386719	264.6405029296876	-593.5075073242189	-245.2281036376954	223.0010070800782	-634.2514038085939	-395.1444702148439	97.54536437988284	-623.0173339843751	-350.9482727050782	90.57794189453126	-703.1882324218751	-454.8370056152345	49.13263320922853	-685.5645751953126	-236.4688873291016	59.69237136840822	-616.3097534179689	-250.8267974853516	61.3595428466797	-581.2618408203126	-278.2431030273438	43.03121948242188	-537.2531127929689	
783	3.91	77.17776489257814	1232.248046875	-903.8066406250002	-66.35008239746095	1127.849609375	-972.8868408203127	-76.62088775634767	1130.71240234375	-828.3789672851565	-133.1737823486328	1075.266357421875	-901.1697998046877	-376.2667236328126	880.5256347656252	-901.7305297851565	-27.52439880371094	920.3485107421877	-891.978942871094	-9.494604110717775	972.7227172851565	-1070.239379882813	-100.7211532592774	906.5205078125002	-1260.196899414063	-114.7756271362305	860.3616943359377	-1261.48876953125	-138.1597747802735	881.5479125976565	-1312.260986328125	-187.9883117675782	840.2752075195315	-1347.361206054688	-243.6495056152344	907.5244750976565	-1340.848999023438	-424.8948364257814	789.3230590820315	-1139.028198242188	nan	nan	nan	-419.9252014160157	717.2087402343751	-1178.651000976563	3.264630794525147	961.097351074219	-722.2094726562501	-110.7043685913086	897.6106567382815	-528.2888793945314	-132.3657379150391	852.6172485351565	-536.0290527343751	-159.4835052490235	869.7094726562502	-485.408905029297	-217.9457702636719	832.4819335937502	-461.9615173339845	-271.7797851562501	904.411560058594	-465.2880249023439	-453.5232849121095	774.7944335937502	-651.6713256835939	-427.9619140625001	702.5498046875001	-630.3306274414064	nan	nan	nan	nan	nan	nan	nan	nan	nan	-478.493621826172	825.3466796875002	-905.3450927734377	-502.5445556640626	816.2800292968752	-935.4892578125002	-513.8321533203126	814.696960449219	-881.2799072265627	-407.5626525878907	614.7197875976564	-1159.722045898438	-329.1244812011719	607.5910644531251	-1188.53564453125	-301.5122070312501	645.0623168945314	-1172.166870117188	-299.6599731445313	557.3224487304689	-1206.157104492188	-163.4034423828125	496.7908630371095	-1237.205322265625	-120.5405883789063	458.1406860351564	-1118.372436523438	-189.0653991699219	280.2125854492188	-1182.985595703125	-255.6542053222657	263.4482727050782	-1242.771240234375	-224.4998168945313	245.7321014404297	-1216.965087890625	-261.4614562988282	175.4168548583985	-1182.37353515625	-374.1837158203126	100.6929397583008	-1212.475952148438	-428.4500122070314	48.18907165527345	-1159.129760742188	-216.9338684082032	59.15625762939455	-1218.536376953125	-229.1863098144532	44.24373245239259	-1266.326049804688	-328.2460937500001	98.698112487793	-1135.6943359375	-329.4027404785157	553.7380981445314	-613.6744995117189	-260.6051635742188	565.8591918945314	-597.7266845703126	-242.9412536621094	592.7647705078126	-609.1231079101564	-208.8688354492188	501.0383911132814	-587.6491699218751	-173.1827239990235	461.5201721191407	-577.7299804687501	-122.4156188964844	442.0516052246095	-694.7468261718751	-174.9044952392578	325.2949218750001	-592.3003540039064	-276.5950927734376	289.0420532226563	-579.2076416015626	-238.4590759277344	264.4941711425782	-593.4745483398439	-244.9717559814454	222.7964782714844	-634.2068481445314	-395.1214904785157	97.542106628418	-623.0446777343751	-350.8959960937501	90.57452392578126	-703.1988525390626	-454.8970947265626	49.22106933593751	-685.5686645507814	-236.4922332763672	59.72298812866212	-616.3012695312501	-250.8301849365235	61.35419082641603	-581.2982177734376	-278.2556152343751	43.06058502197266	-537.2838745117189	
784	3.915	77.34368133544923	1232.212524414063	-903.8911743164065	-66.18517303466798	1127.8720703125	-972.9194946289065	-76.52989959716798	1130.640869140625	-828.4232177734377	-133.0495910644532	1075.158203125	-901.2685546875002	-376.0826110839844	880.4416503906252	-901.778991699219	-27.4502182006836	920.2893676757815	-892.0098266601565	-9.297494888305666	972.5776367187502	-1070.236694335938	-100.6001815795899	906.3958129882815	-1260.222778320313	-114.5435256958008	860.1873779296877	-1261.464111328125	-138.1103668212891	881.4690551757815	-1312.348022460938	-187.7956085205078	840.2907714843752	-1347.432739257813	-243.705795288086	907.396423339844	-1340.854370117188	-424.8139648437501	789.1964111328127	-1139.070068359375	nan	nan	nan	-419.6594543457032	717.0972290039064	-1178.686279296875	3.415897607803346	961.0296020507815	-722.2501831054689	-110.5874557495117	897.584167480469	-528.3682861328126	-132.2227325439453	852.5130004882815	-536.0440063476564	-159.3809051513672	869.6057739257815	-485.4735107421876	-217.8070678710938	832.4106445312502	-461.9968566894532	-271.6877441406251	904.3450317382815	-465.2883300781251	-453.3223571777345	774.6289672851565	-651.7653198242189	-427.7875061035157	702.4127807617189	-630.3212890625001	nan	nan	nan	nan	nan	nan	nan	nan	nan	-478.4653930664064	825.3446044921877	-905.292663574219	-502.4509277343751	816.2993774414065	-935.4669189453127	-513.6818847656251	814.585144042969	-881.3232421875002	-407.4122009277345	614.6329956054689	-1159.77685546875	-328.2286682128907	607.3273925781251	-1188.224975585938	-301.3551940917969	644.9578247070314	-1172.2119140625	-299.5994567871094	557.2163696289064	-1206.178833007813	-163.2816772460938	496.6675415039064	-1237.283447265625	-120.426742553711	458.089569091797	-1118.3134765625	-189.0787658691407	280.1936645507813	-1182.980102539063	-255.5868377685547	263.4533691406251	-1242.768676757813	-224.4617156982422	245.6627655029297	-1216.988525390625	-261.3984069824219	175.3965301513672	-1182.358276367188	-374.1330261230469	100.7467956542969	-1212.492309570313	-428.4802246093751	48.2693214416504	-1159.120971679688	-216.9532623291016	59.20096588134767	-1218.5595703125	-229.1734771728516	44.18870925903321	-1266.33447265625	-328.2373657226563	98.62288665771487	-1135.703247070313	-329.1638183593751	553.6470336914064	-613.7710571289064	-260.4540710449219	565.7534790039064	-597.7286376953126	-242.7636871337891	592.6387329101564	-609.2300415039064	-208.7132720947266	500.9764099121095	-587.7356567382814	-172.9926910400391	461.4350585937501	-577.8461914062501	-122.0895156860352	441.8894653320314	-694.9107666015626	-174.8082580566407	325.2384338378907	-592.3948974609376	-276.5277709960938	289.0208129882813	-579.1896972656251	-238.3700103759766	264.4477233886719	-593.4877319335939	-245.0363922119141	222.6687927246094	-634.4105224609376	-395.3901367187501	97.41565704345706	-623.0014648437501	-351.7451477050782	90.75939941406251	-703.4422607421876	-454.7649230957032	49.19752883911134	-685.6622924804689	-236.5146026611329	59.67860794067384	-616.3454589843751	-250.8084411621094	61.37491607666017	-581.2611083984376	-278.2381896972657	43.05280303955079	-537.2868652343751	
